<?xml version="1.0" encoding="utf-8"?>
<!-- Generator: Adobe Illustrator 16.0.0, SVG Export Plug-In . SVG Version: 6.00 Build 0)  -->
<!DOCTYPE svg PUBLIC "-//W3C//DTD SVG 1.1//EN" "http://www.w3.org/Graphics/SVG/1.1/DTD/svg11.dtd">
<svg version="1.1" id="Layer_1" xmlns="http://www.w3.org/2000/svg" xmlns:xlink="http://www.w3.org/1999/xlink" x="0px" y="0px"
	 width="612px" height="792px" viewBox="0 0 612 792" enable-background="new 0 0 612 792" xml:space="preserve">
<g>
	<path fill="#FF865E" d="M582.275,265.137l-2.889,11.259c-13.735-7.114-37.635-16.78-69.661-16.78
		c-39.659,0-57.465,21.357-57.465,43.221c0,27.963,19.328,40.674,67.12,62.543c50.242,22.458,78.125,50.195,87.159,86.852
		c3.379-18.184,5.23-36.906,5.23-56.066C611.771,349.264,601.165,304.845,582.275,265.137z"/>
	<path fill="#FF865E" d="M134.019,202.675h94.565c17.646,63.115,35.837,121.405,53.344,190.404
		c12.165,47.938,43.547,97.215,92.133,120.983c27.353,7.956,54.372,18.07,82.923,20.694c22.048,2.019,51.306,1.747,66.11-17.769
		c5.668-7.502,11.032-20.563,11.032-30.095c0-27.969-18.81-44.743-62.024-63.558c-58.987-25.421-95.591-62.03-95.591-112.878
		c0-64.06,50.345-113.379,134.736-113.379c10.039,0,19.387,0.675,28.13,1.776c-56.012-66.063-139.561-108.042-232.96-108.042
		c-168.642,0-305.354,136.712-305.354,305.354c0,52.692,13.347,102.267,36.844,145.531L134.019,202.675z"/>
	<path fill="#FF865E" d="M469.624,598.681c-46.643,3.152-111.513-20.801-111.513-20.801c-29.495-10.524-56.382-27.882-78.306-50.237
		c-12.335-12.575-24.155-26.867-33.654-41.73c-27.253-42.629-36.741-92.984-49.091-141.387
		c-6.101-24.406-12.71-55.932-17.792-79.825h-1.527c-5.087,24.406-11.696,56.444-17.288,79.318L126.39,490.445L99.438,593.661
		h-25.82c56.01,65.96,139.489,107.858,232.799,107.858c99.271,0,187.446-47.404,243.216-120.778
		C528.184,591.902,501.413,598.4,469.624,598.681z"/>
</g>
</svg>
